<svg width="1800" height="1220" viewBox="0 0 1800 1220" fill="none" xmlns="http://www.w3.org/2000/svg">
  <defs>
    <linearGradient id="flow" x1="150" y1="1020" x2="1610" y2="150" gradientUnits="userSpaceOnUse">
      <stop stop-color="#145CFF" stop-opacity="0"/>
      <stop offset=".46" stop-color="#145CFF" stop-opacity=".18"/>
      <stop offset="1" stop-color="#145CFF" stop-opacity="0"/>
    </linearGradient>
    <linearGradient id="navyFlow" x1="280" y1="960" x2="1490" y2="120" gradientUnits="userSpaceOnUse">
      <stop stop-color="#0B2343" stop-opacity="0"/>
      <stop offset=".55" stop-color="#0B2343" stop-opacity=".08"/>
      <stop offset="1" stop-color="#0B2343" stop-opacity="0"/>
    </linearGradient>
    <radialGradient id="wash" cx="0" cy="0" r="1" gradientTransform="translate(1410 230) rotate(132) scale(650 470)" gradientUnits="userSpaceOnUse">
      <stop stop-color="#DCEAFF" stop-opacity=".82"/>
      <stop offset="1" stop-color="#F7FAFF" stop-opacity="0"/>
    </radialGradient>
    <filter id="blur" x="-80%" y="-80%" width="260%" height="260%"><feGaussianBlur stdDeviation="34"/></filter>
    <pattern id="micro" width="72" height="72" patternUnits="userSpaceOnUse"><path d="M72 0H0V72" stroke="#145CFF" stroke-opacity=".025"/></pattern>
  </defs>
  <rect width="1800" height="1220" fill="url(#micro)"/>
  <ellipse cx="1410" cy="230" rx="650" ry="470" fill="url(#wash)"/>
  <path d="M-80 1028C177 920 330 956 540 798C750 640 865 662 1050 507C1235 352 1410 274 1880 338" stroke="url(#flow)" stroke-width="1.4"/>
  <path d="M-44 1100C252 962 414 1012 640 824C866 636 977 698 1178 519C1379 340 1545 362 1862 252" stroke="url(#navyFlow)"/>
  <path d="M230 844L510 664L736 726L965 492L1214 564L1514 286" stroke="#145CFF" stroke-opacity=".145"/>
  <path d="M510 664L574 388L965 492L1112 235L1514 286" stroke="#0B2343" stroke-opacity=".07"/>
  <path d="M736 726L884 846L1214 564L1386 710" stroke="#145CFF" stroke-opacity=".055" stroke-dasharray="5 10"/>
  <circle cx="230" cy="844" r="5" fill="#145CFF" fill-opacity=".34"/>
  <circle cx="510" cy="664" r="9" fill="white" stroke="#145CFF" stroke-opacity=".36"/>
  <circle cx="574" cy="388" r="4" fill="#145CFF" fill-opacity=".28"/>
  <circle cx="736" cy="726" r="4" fill="#145CFF" fill-opacity=".27"/>
  <circle cx="965" cy="492" r="10" fill="white" stroke="#145CFF" stroke-opacity=".37"/>
  <circle cx="1112" cy="235" r="4" fill="#145CFF" fill-opacity=".31"/>
  <circle cx="1214" cy="564" r="5" fill="#145CFF" fill-opacity=".33"/>
  <circle cx="1514" cy="286" r="9" fill="white" stroke="#145CFF" stroke-opacity=".31"/>
  <circle cx="884" cy="846" r="3" fill="#145CFF" fill-opacity=".16"/>
  <circle cx="1386" cy="710" r="3" fill="#145CFF" fill-opacity=".14"/>
  <g stroke="#145CFF" stroke-opacity=".055">
    <circle cx="965" cy="492" r="82"/><circle cx="965" cy="492" r="150"/><circle cx="1514" cy="286" r="114"/>
    <path d="M965 380V604M853 492H1077"/><path d="M1514 218V354M1446 286H1582"/>
  </g>
  <g opacity=".23" fill="#145CFF">
    <rect x="1278" y="773" width="94" height="2" rx="1"/><rect x="1278" y="786" width="146" height="2" rx="1"/><rect x="1278" y="799" width="68" height="2" rx="1"/>
    <circle cx="1258" cy="774" r="3"/><circle cx="1258" cy="787" r="3"/><circle cx="1258" cy="800" r="3"/>
  </g>
  <circle cx="1450" cy="355" r="112" fill="#145CFF" fill-opacity=".038" filter="url(#blur)"/>
</svg>